<svg width="1472" height="236" viewBox="0 0 1472 236" fill="none" xmlns="http://www.w3.org/2000/svg">
<path fill-rule="evenodd" clip-rule="evenodd" d="M249.954 122.644L297.329 188.176L343.708 154.626L252.873 28.9845L186.792 109.386L129.751 0L79.0396 105.807L49.6441 47.4884L0 76.1507L80.3848 235.537L131.917 127.935L176.081 212.583L249.954 122.644Z" fill="#F94B00"/>
<path d="M428.648 141.122L384.883 31.8683H400.94L436.991 124.278H431.166L467.532 31.8683H483.432L439.353 141.122H428.648ZM498.935 141.122V66.3446H513.103V141.122H498.935ZM506.019 51.3891C503.395 51.3891 501.244 50.5495 499.564 48.8703C497.885 47.0861 497.046 44.8822 497.046 42.2584C497.046 39.7396 497.885 37.6406 499.564 35.9613C501.244 34.1772 503.395 33.2851 506.019 33.2851C508.643 33.2851 510.794 34.1772 512.473 35.9613C514.153 37.6406 514.992 39.7396 514.992 42.2584C514.992 44.8822 514.153 47.0861 512.473 48.8703C510.794 50.5495 508.643 51.3891 506.019 51.3891ZM586.878 141.122V97.5151C586.878 91.8477 585.094 87.1774 581.526 83.5041C577.958 79.8308 573.34 77.9942 567.672 77.9942C563.894 77.9942 560.536 78.8338 557.597 80.513C554.658 82.1922 552.349 84.5012 550.67 87.4398C548.991 90.3784 548.151 93.7369 548.151 97.5151L542.327 94.2091C542.327 88.5418 543.586 83.5041 546.105 79.0962C548.624 74.6883 552.14 71.2249 556.652 68.706C561.165 66.0823 566.255 64.7704 571.923 64.7704C577.59 64.7704 582.575 66.1872 586.878 69.0209C591.286 71.8546 594.75 75.5803 597.268 80.1982C599.787 84.7111 601.047 89.5388 601.047 94.6814V141.122H586.878ZM533.983 141.122V66.3446H548.151V141.122H533.983ZM620.387 141.122V66.3446H634.555V141.122H620.387ZM627.471 51.3891C624.847 51.3891 622.696 50.5495 621.017 48.8703C619.337 47.0861 618.498 44.8822 618.498 42.2584C618.498 39.7396 619.337 37.6406 621.017 35.9613C622.696 34.1772 624.847 33.2851 627.471 33.2851C630.095 33.2851 632.246 34.1772 633.925 35.9613C635.605 37.6406 636.444 39.7396 636.444 42.2584C636.444 44.8822 635.605 47.0861 633.925 48.8703C632.246 50.5495 630.095 51.3891 627.471 51.3891ZM689.597 142.696C682.25 142.696 675.586 140.965 669.603 137.501C663.726 134.038 659.056 129.368 655.593 123.49C652.234 117.508 650.555 110.896 650.555 103.655C650.555 96.3082 652.234 89.6962 655.593 83.819C659.056 77.9417 663.726 73.3239 669.603 69.9655C675.586 66.5021 682.25 64.7704 689.597 64.7704C695.369 64.7704 700.721 65.8724 705.654 68.0763C710.587 70.1754 714.837 73.2714 718.406 77.3645L708.96 86.8101C706.651 84.0814 703.818 82.0348 700.459 80.6705C697.206 79.2011 693.585 78.4665 689.597 78.4665C684.874 78.4665 680.676 79.5685 677.003 81.7724C673.329 83.8715 670.443 86.8101 668.344 90.5883C666.245 94.3666 665.196 98.722 665.196 103.655C665.196 108.587 666.245 112.943 668.344 116.721C670.443 120.499 673.329 123.49 677.003 125.694C680.676 127.898 684.874 129 689.597 129C693.585 129 697.206 128.318 700.459 126.954C703.818 125.485 706.704 123.386 709.118 120.657L718.406 130.102C714.942 134.091 710.692 137.187 705.654 139.391C700.721 141.595 695.369 142.696 689.597 142.696ZM732.615 141.122V66.3446H746.783V141.122H732.615ZM739.699 51.3891C737.075 51.3891 734.924 50.5495 733.244 48.8703C731.565 47.0861 730.726 44.8822 730.726 42.2584C730.726 39.7396 731.565 37.6406 733.244 35.9613C734.924 34.1772 737.075 33.2851 739.699 33.2851C742.323 33.2851 744.474 34.1772 746.153 35.9613C747.833 37.6406 748.672 39.7396 748.672 42.2584C748.672 44.8822 747.833 47.0861 746.153 48.8703C744.474 50.5495 742.323 51.3891 739.699 51.3891ZM797.889 142.696C791.697 142.696 786.134 141.332 781.202 138.603C776.374 135.77 772.596 131.887 769.867 126.954C767.138 122.021 765.774 116.301 765.774 109.794V66.3446H779.942V109.165C779.942 113.258 780.624 116.826 781.989 119.87C783.458 122.808 785.557 125.065 788.286 126.639C791.015 128.213 794.216 129 797.889 129C803.451 129 807.807 127.269 810.955 123.805C814.104 120.237 815.678 115.357 815.678 109.165V66.3446H829.846V109.794C829.846 116.301 828.482 122.021 825.753 126.954C823.025 131.887 819.246 135.77 814.419 138.603C809.696 141.332 804.186 142.696 797.889 142.696ZM872.607 142.696C868.409 142.696 864.421 142.172 860.643 141.122C856.97 139.968 853.559 138.393 850.41 136.399C847.262 134.3 844.533 131.834 842.224 129L851.355 119.87C854.084 123.228 857.232 125.747 860.8 127.426C864.369 129 868.357 129.788 872.765 129.788C877.173 129.788 880.584 129.053 882.998 127.584C885.411 126.009 886.618 123.858 886.618 121.129C886.618 118.4 885.621 116.301 883.627 114.832C881.738 113.258 879.272 111.998 876.228 111.054C873.185 110.004 869.931 109.007 866.468 108.063C863.109 107.013 859.908 105.701 856.865 104.127C853.821 102.553 851.302 100.401 849.308 97.6725C847.419 94.9438 846.475 91.323 846.475 86.8101C846.475 82.2972 847.577 78.414 849.781 75.1605C851.985 71.8021 855.028 69.2308 858.911 67.4466C862.899 65.6625 867.675 64.7704 873.237 64.7704C879.114 64.7704 884.309 65.8199 888.822 67.9189C893.44 69.913 897.218 72.9566 900.157 77.0496L891.026 86.1804C888.927 83.4517 886.303 81.3526 883.155 79.8833C880.111 78.414 876.648 77.6794 872.765 77.6794C868.672 77.6794 865.523 78.414 863.319 79.8833C861.22 81.2477 860.171 83.1893 860.171 85.7081C860.171 88.2269 861.115 90.1685 863.004 91.5329C864.893 92.8972 867.36 94.0517 870.403 94.9963C873.552 95.9408 876.805 96.9379 880.164 97.9874C883.522 98.9319 886.723 100.244 889.767 101.923C892.81 103.602 895.277 105.859 897.166 108.692C899.16 111.526 900.157 115.252 900.157 119.87C900.157 126.901 897.638 132.464 892.601 136.557C887.668 140.65 881.003 142.696 872.607 142.696ZM951.284 141.122V31.8683H961.674L1007.96 107.905H1000.87L1047.16 31.8683H1057.55V141.122H1042.75V57.8436L1046.21 58.7882L1009.69 118.768H999.299L962.776 58.7882L966.082 57.8436V141.122H951.284ZM1112.62 142.696C1105.8 142.696 1099.61 141.017 1094.05 137.659C1088.49 134.195 1084.08 129.525 1080.82 123.648C1077.68 117.771 1076.1 111.159 1076.1 103.812C1076.1 96.4656 1077.68 89.8537 1080.82 83.9764C1084.08 78.0992 1088.43 73.4288 1093.89 69.9655C1099.45 66.5021 1105.7 64.7704 1112.62 64.7704C1118.29 64.7704 1123.33 65.9773 1127.74 68.3912C1132.25 70.7001 1135.87 73.9536 1138.6 78.1516C1141.33 82.2447 1142.85 87.02 1143.17 92.4774V114.989C1142.85 120.342 1141.33 125.117 1138.6 129.315C1135.98 133.513 1132.41 136.819 1127.9 139.233C1123.49 141.542 1118.4 142.696 1112.62 142.696ZM1114.99 129.315C1122.02 129.315 1127.69 126.954 1131.99 122.231C1136.29 117.403 1138.44 111.264 1138.44 103.812C1138.44 98.6695 1137.45 94.2091 1135.45 90.4309C1133.56 86.5477 1130.83 83.5566 1127.27 81.4576C1123.7 79.2536 1119.55 78.1516 1114.83 78.1516C1110.11 78.1516 1105.91 79.2536 1102.23 81.4576C1098.67 83.6616 1095.83 86.7051 1093.73 90.5883C1091.74 94.3666 1090.74 98.722 1090.74 103.655C1090.74 108.692 1091.74 113.153 1093.73 117.036C1095.83 120.814 1098.72 123.805 1102.39 126.009C1106.07 128.213 1110.26 129.315 1114.99 129.315ZM1137.5 141.122V120.972L1140.17 102.71L1137.5 84.6061V66.3446H1151.82V141.122H1137.5ZM1172.45 141.122V66.3446H1186.62V141.122H1172.45ZM1186.62 98.4596L1181.27 96.0983C1181.27 86.5477 1183.47 78.9388 1187.88 73.2714C1192.29 67.6041 1198.64 64.7704 1206.93 64.7704C1210.71 64.7704 1214.12 65.4526 1217.16 66.8169C1220.2 68.0763 1223.04 70.2278 1225.66 73.2714L1216.37 82.8744C1214.8 81.1952 1213.07 79.9883 1211.18 79.2536C1209.29 78.519 1207.09 78.1516 1204.57 78.1516C1199.32 78.1516 1195.02 79.8308 1191.66 83.1893C1188.3 86.5477 1186.62 91.6378 1186.62 98.4596ZM1246.98 141.122V35.0168H1261.14V141.122H1246.98ZM1228.56 79.2536V66.3446H1279.56V79.2536H1228.56ZM1293.6 141.122V66.3446H1307.77V141.122H1293.6ZM1300.68 51.3891C1298.06 51.3891 1295.91 50.5495 1294.23 48.8703C1292.55 47.0861 1291.71 44.8822 1291.71 42.2584C1291.71 39.7396 1292.55 37.6406 1294.23 35.9613C1295.91 34.1772 1298.06 33.2851 1300.68 33.2851C1303.31 33.2851 1305.46 34.1772 1307.14 35.9613C1308.82 37.6406 1309.66 39.7396 1309.66 42.2584C1309.66 44.8822 1308.82 47.0861 1307.14 48.8703C1305.46 50.5495 1303.31 51.3891 1300.68 51.3891ZM1381.54 141.122V97.5151C1381.54 91.8477 1379.76 87.1774 1376.19 83.5041C1372.62 79.8308 1368.01 77.9942 1362.34 77.9942C1358.56 77.9942 1355.2 78.8338 1352.26 80.513C1349.32 82.1922 1347.01 84.5012 1345.34 87.4398C1343.66 90.3784 1342.82 93.7369 1342.82 97.5151L1336.99 94.2091C1336.99 88.5418 1338.25 83.5041 1340.77 79.0962C1343.29 74.6883 1346.8 71.2249 1351.32 68.706C1355.83 66.0823 1360.92 64.7704 1366.59 64.7704C1372.26 64.7704 1377.24 66.1872 1381.54 69.0209C1385.95 71.8546 1389.42 75.5803 1391.93 80.1982C1394.45 84.7111 1395.71 89.5388 1395.71 94.6814V141.122H1381.54ZM1328.65 141.122V66.3446H1342.82V141.122H1328.65ZM1438.67 142.696C1434.47 142.696 1430.48 142.172 1426.7 141.122C1423.03 139.968 1419.62 138.393 1416.47 136.399C1413.32 134.3 1410.59 131.834 1408.28 129L1417.41 119.87C1420.14 123.228 1423.29 125.747 1426.86 127.426C1430.43 129 1434.42 129.788 1438.82 129.788C1443.23 129.788 1446.64 129.053 1449.06 127.584C1451.47 126.009 1452.68 123.858 1452.68 121.129C1452.68 118.4 1451.68 116.301 1449.69 114.832C1447.8 113.258 1445.33 111.998 1442.29 111.054C1439.24 110.004 1435.99 109.007 1432.53 108.063C1429.17 107.013 1425.97 105.701 1422.92 104.127C1419.88 102.553 1417.36 100.401 1415.37 97.6725C1413.48 94.9438 1412.53 91.323 1412.53 86.8101C1412.53 82.2972 1413.64 78.414 1415.84 75.1605C1418.04 71.8021 1421.09 69.2308 1424.97 67.4466C1428.96 65.6625 1433.73 64.7704 1439.3 64.7704C1445.17 64.7704 1450.37 65.8199 1454.88 67.9189C1459.5 69.913 1463.28 72.9566 1466.22 77.0496L1457.09 86.1804C1454.99 83.4517 1452.36 81.3526 1449.21 79.8833C1446.17 78.414 1442.71 77.6794 1438.82 77.6794C1434.73 77.6794 1431.58 78.414 1429.38 79.8833C1427.28 81.2477 1426.23 83.1893 1426.23 85.7081C1426.23 88.2269 1427.17 90.1685 1429.06 91.5329C1430.95 92.8972 1433.42 94.0517 1436.46 94.9963C1439.61 95.9408 1442.86 96.9379 1446.22 97.9874C1449.58 98.9319 1452.78 100.244 1455.83 101.923C1458.87 103.602 1461.34 105.859 1463.22 108.692C1465.22 111.526 1466.22 115.252 1466.22 119.87C1466.22 126.901 1463.7 132.464 1458.66 136.557C1453.73 140.65 1447.06 142.696 1438.67 142.696Z" fill="white"/>
<path d="M491.685 206.248V204.668H503.321C506.48 204.668 509.271 203.966 511.693 202.562C514.15 201.158 516.063 199.245 517.432 196.823C518.801 194.366 519.485 191.558 519.485 188.399C519.485 185.275 518.801 182.502 517.432 180.08C516.063 177.623 514.15 175.71 511.693 174.341C509.271 172.937 506.48 172.235 503.321 172.235H491.896V170.655H503.321C505.954 170.655 508.358 171.094 510.534 171.971C512.711 172.849 514.606 174.078 516.221 175.657C517.835 177.237 519.081 179.115 519.959 181.291C520.836 183.467 521.275 185.854 521.275 188.451C521.275 191.014 520.836 193.383 519.959 195.559C519.081 197.736 517.835 199.631 516.221 201.246C514.641 202.825 512.763 204.054 510.587 204.931C508.411 205.809 506.024 206.248 503.426 206.248H491.685ZM491.106 206.248V170.655H492.791V206.248H491.106ZM529.978 206.248V170.655H531.662V206.248H529.978ZM530.925 206.248V204.721H552.881V206.248H530.925ZM530.925 188.715V187.24H551.301V188.715H530.925ZM530.925 172.182V170.655H552.565V172.182H530.925ZM569.799 206.774C567.061 206.774 564.674 206.248 562.638 205.195C560.602 204.107 558.865 202.632 557.425 200.772L558.636 199.614C560.111 201.614 561.778 203.053 563.638 203.931C565.499 204.773 567.587 205.195 569.904 205.195C572.501 205.195 574.625 204.563 576.275 203.299C577.925 202.036 578.749 200.28 578.749 198.034C578.749 196.349 578.398 194.98 577.696 193.927C577.029 192.839 576.134 191.962 575.011 191.295C573.888 190.628 572.659 190.049 571.326 189.557C569.992 189.031 568.658 188.522 567.324 188.03C565.99 187.504 564.762 186.872 563.638 186.135C562.515 185.363 561.603 184.397 560.901 183.239C560.234 182.045 559.9 180.536 559.9 178.711C559.9 176.991 560.304 175.499 561.111 174.235C561.954 172.937 563.112 171.936 564.586 171.234C566.06 170.497 567.78 170.129 569.746 170.129C572.028 170.129 574.063 170.567 575.854 171.445C577.644 172.322 579.171 173.586 580.434 175.236L579.223 176.394C578.03 174.885 576.661 173.727 575.116 172.919C573.607 172.112 571.817 171.708 569.746 171.708C567.359 171.708 565.411 172.322 563.902 173.551C562.392 174.78 561.638 176.482 561.638 178.658C561.638 180.238 561.971 181.537 562.638 182.554C563.34 183.537 564.253 184.362 565.376 185.029C566.499 185.661 567.728 186.223 569.062 186.714C570.395 187.17 571.729 187.662 573.063 188.188C574.397 188.715 575.625 189.364 576.749 190.136C577.872 190.909 578.767 191.909 579.434 193.137C580.136 194.331 580.487 195.858 580.487 197.718C580.487 200.702 579.522 202.966 577.591 204.51C575.696 206.02 573.098 206.774 569.799 206.774ZM589.056 206.248V170.655H590.741V206.248H589.056ZM617.355 206.722C614.758 206.722 612.353 206.265 610.142 205.353C607.965 204.44 606.07 203.176 604.455 201.562C602.876 199.912 601.647 197.981 600.77 195.77C599.892 193.524 599.453 191.084 599.453 188.451C599.453 185.819 599.892 183.397 600.77 181.186C601.682 178.939 602.946 176.991 604.561 175.341C606.175 173.656 608.071 172.358 610.247 171.445C612.423 170.532 614.81 170.076 617.408 170.076C620.321 170.076 622.971 170.673 625.358 171.866C627.745 173.024 629.675 174.692 631.15 176.868L629.886 178.132C628.482 176.061 626.709 174.481 624.568 173.393C622.462 172.27 620.075 171.708 617.408 171.708C614.284 171.708 611.493 172.445 609.036 173.92C606.614 175.359 604.701 177.342 603.297 179.869C601.928 182.396 601.244 185.275 601.244 188.504C601.244 191.698 601.928 194.559 603.297 197.086C604.666 199.578 606.544 201.544 608.931 202.983C611.353 204.387 614.126 205.089 617.25 205.089C620.198 205.089 622.761 204.458 624.937 203.194C627.113 201.93 628.798 200.123 629.991 197.771C631.22 195.384 631.852 192.558 631.887 189.294L632.519 189.82H616.618V188.293H633.624V188.609C633.624 192.4 632.957 195.647 631.624 198.35C630.29 201.053 628.394 203.124 625.937 204.563C623.515 206.002 620.654 206.722 617.355 206.722ZM641.965 206.248V170.655H643.229L643.65 172.867V206.248H641.965ZM666.553 206.248L642.86 172.919L643.229 170.655L666.922 203.984L666.553 206.248ZM666.553 206.248L666.132 204.036V170.655H667.817V206.248H666.553ZM691.454 213.092V166.97H692.98V213.092H691.454ZM716.572 206.248V170.655H718.257V206.248H716.572ZM717.52 206.248V204.721H739.476V206.248H717.52ZM717.52 188.715V187.24H737.896V188.715H717.52ZM717.52 172.182V170.655H739.16V172.182H717.52ZM756.393 206.774C753.655 206.774 751.268 206.248 749.233 205.195C747.197 204.107 745.459 202.632 744.02 200.772L745.231 199.614C746.705 201.614 748.373 203.053 750.233 203.931C752.093 204.773 754.182 205.195 756.498 205.195C759.096 205.195 761.22 204.563 762.869 203.299C764.519 202.036 765.344 200.28 765.344 198.034C765.344 196.349 764.993 194.98 764.291 193.927C763.624 192.839 762.729 191.962 761.606 191.295C760.482 190.628 759.254 190.049 757.92 189.557C756.586 189.031 755.252 188.522 753.919 188.03C752.585 187.504 751.356 186.872 750.233 186.135C749.11 185.363 748.197 184.397 747.495 183.239C746.828 182.045 746.495 180.536 746.495 178.711C746.495 176.991 746.898 175.499 747.706 174.235C748.548 172.937 749.706 171.936 751.181 171.234C752.655 170.497 754.375 170.129 756.341 170.129C758.622 170.129 760.658 170.567 762.448 171.445C764.238 172.322 765.765 173.586 767.029 175.236L765.818 176.394C764.624 174.885 763.255 173.727 761.711 172.919C760.202 172.112 758.411 171.708 756.341 171.708C753.954 171.708 752.006 172.322 750.496 173.551C748.987 174.78 748.232 176.482 748.232 178.658C748.232 180.238 748.566 181.537 749.233 182.554C749.935 183.537 750.847 184.362 751.97 185.029C753.094 185.661 754.322 186.223 755.656 186.714C756.99 187.17 758.324 187.662 759.658 188.188C760.991 188.715 762.22 189.364 763.343 190.136C764.466 190.909 765.361 191.909 766.028 193.137C766.73 194.331 767.081 195.858 767.081 197.718C767.081 200.702 766.116 202.966 764.186 204.51C762.29 206.02 759.693 206.774 756.393 206.774ZM784.442 206.248V171.656H786.127V206.248H784.442ZM770.91 172.182V170.655H799.658V172.182H770.91ZM808.269 189.504V187.978H819.958C822.871 187.978 825.083 187.258 826.592 185.819C828.102 184.345 828.856 182.432 828.856 180.08C828.856 177.693 828.102 175.78 826.592 174.341C825.083 172.902 822.871 172.182 819.958 172.182H808.269V170.655H819.695C822.047 170.655 824.03 171.059 825.644 171.866C827.259 172.638 828.488 173.744 829.33 175.183C830.172 176.587 830.594 178.219 830.594 180.08C830.594 181.94 830.172 183.59 829.33 185.029C828.488 186.433 827.259 187.539 825.644 188.346C824.03 189.118 822.047 189.504 819.695 189.504H808.269ZM807.427 206.248V170.655H809.112V206.248H807.427ZM831.015 206.248L816.746 188.767L818.589 188.451L833.279 206.248H831.015ZM836.469 206.248L850.948 170.655H852.528L866.902 206.248H865.059L851.317 172.129H852.106L838.259 206.248H836.469ZM842.524 194.506V192.979H860.899V194.506H842.524ZM879.513 206.248V171.656H881.198V206.248H879.513ZM865.981 172.182V170.655H894.729V172.182H865.981ZM902.498 206.248V170.655H904.183V206.248H902.498ZM903.446 206.248V204.721H925.402V206.248H903.446ZM903.446 188.715V187.24H923.822V188.715H903.446ZM903.446 172.182V170.655H925.086V172.182H903.446ZM910.343 166.601L909.659 165.917L916.872 157.808L918.294 159.23L910.343 166.601ZM948.69 206.722C946.093 206.722 943.688 206.265 941.477 205.353C939.301 204.44 937.405 203.176 935.79 201.562C934.211 199.912 932.982 197.981 932.105 195.77C931.227 193.524 930.789 191.084 930.789 188.451C930.789 185.819 931.227 183.397 932.105 181.186C933.017 178.939 934.281 176.991 935.896 175.341C937.51 173.656 939.406 172.358 941.582 171.445C943.758 170.532 946.145 170.076 948.743 170.076C951.656 170.076 954.306 170.673 956.693 171.866C959.08 173.024 961.011 174.692 962.485 176.868L961.221 178.132C959.817 176.061 958.045 174.481 955.903 173.393C953.797 172.27 951.41 171.708 948.743 171.708C945.619 171.708 942.828 172.445 940.371 173.92C937.949 175.359 936.036 177.342 934.632 179.869C933.263 182.396 932.579 185.275 932.579 188.504C932.579 191.698 933.263 194.559 934.632 197.086C936.001 199.578 937.879 201.544 940.266 202.983C942.688 204.387 945.461 205.089 948.585 205.089C951.533 205.089 954.096 204.458 956.272 203.194C958.448 201.93 960.133 200.123 961.326 197.771C962.555 195.384 963.187 192.558 963.222 189.294L963.854 189.82H947.953V188.293H964.959V188.609C964.959 192.4 964.293 195.647 962.959 198.35C961.625 201.053 959.729 203.124 957.272 204.563C954.85 206.002 951.99 206.722 948.69 206.722ZM973.3 206.248V170.655H974.985V206.248H973.3ZM982.855 206.248L997.334 170.655H998.914L1013.29 206.248H1011.44L997.703 172.129H998.492L984.645 206.248H982.855ZM988.91 194.506V192.979H1007.29V194.506H988.91ZM1032.82 213.092V166.97H1034.34V213.092H1032.82ZM1074.04 206.774C1071.52 206.774 1069.17 206.318 1066.99 205.405C1064.81 204.458 1062.92 203.141 1061.3 201.456C1059.69 199.772 1058.42 197.823 1057.51 195.612C1056.63 193.366 1056.2 190.961 1056.2 188.399C1056.2 185.801 1056.63 183.397 1057.51 181.186C1058.39 178.974 1059.62 177.044 1061.2 175.394C1062.81 173.744 1064.69 172.463 1066.83 171.55C1068.97 170.603 1071.29 170.129 1073.78 170.129C1076.34 170.129 1078.73 170.62 1080.94 171.603C1083.15 172.586 1085.07 173.955 1086.68 175.71L1085.47 176.921C1084.07 175.306 1082.35 174.042 1080.31 173.13C1078.31 172.217 1076.13 171.761 1073.78 171.761C1071.54 171.761 1069.45 172.182 1067.52 173.024C1065.62 173.867 1063.95 175.043 1062.51 176.552C1061.08 178.062 1059.95 179.834 1059.14 181.87C1058.37 183.871 1057.99 186.047 1057.99 188.399C1057.99 190.751 1058.39 192.944 1059.2 194.98C1060 197.016 1061.11 198.806 1062.51 200.351C1063.95 201.86 1065.64 203.036 1067.57 203.878C1069.53 204.721 1071.64 205.142 1073.89 205.142C1076.27 205.142 1078.49 204.686 1080.52 203.773C1082.59 202.825 1084.33 201.544 1085.73 199.929L1086.94 201.14C1085.37 202.896 1083.47 204.282 1081.26 205.3C1079.05 206.283 1076.64 206.774 1074.04 206.774ZM1109.21 206.774C1106.71 206.774 1104.4 206.318 1102.26 205.405C1100.15 204.458 1098.31 203.141 1096.73 201.456C1095.15 199.772 1093.92 197.823 1093.04 195.612C1092.16 193.366 1091.73 190.961 1091.73 188.399C1091.73 185.801 1092.15 183.397 1092.99 181.186C1093.87 178.974 1095.1 177.044 1096.67 175.394C1098.25 173.744 1100.1 172.463 1102.2 171.55C1104.31 170.603 1106.61 170.129 1109.1 170.129C1111.59 170.129 1113.89 170.603 1116 171.55C1118.14 172.463 1119.98 173.744 1121.53 175.394C1123.11 177.044 1124.33 178.992 1125.21 181.238C1126.09 183.45 1126.53 185.854 1126.53 188.451C1126.53 191.014 1126.09 193.418 1125.21 195.665C1124.37 197.876 1123.16 199.824 1121.58 201.509C1120 203.159 1118.16 204.458 1116.05 205.405C1113.98 206.318 1111.7 206.774 1109.21 206.774ZM1109.1 205.142C1112.08 205.142 1114.75 204.405 1117.1 202.931C1119.46 201.456 1121.32 199.456 1122.68 196.928C1124.05 194.401 1124.74 191.558 1124.74 188.399C1124.74 186.047 1124.33 183.871 1123.53 181.87C1122.76 179.834 1121.67 178.062 1120.26 176.552C1118.86 175.043 1117.21 173.867 1115.31 173.024C1113.42 172.182 1111.35 171.761 1109.1 171.761C1106.12 171.761 1103.45 172.498 1101.1 173.972C1098.75 175.411 1096.89 177.395 1095.52 179.922C1094.18 182.414 1093.52 185.24 1093.52 188.399C1093.52 190.751 1093.9 192.944 1094.67 194.98C1095.48 197.016 1096.59 198.806 1097.99 200.351C1099.4 201.86 1101.05 203.036 1102.94 203.878C1104.84 204.721 1106.89 205.142 1109.1 205.142ZM1135.21 206.248V170.655H1136.48L1136.9 172.867V206.248H1135.21ZM1159.8 206.248L1136.11 172.919L1136.48 170.655L1160.17 203.984L1159.8 206.248ZM1159.8 206.248L1159.38 204.036V170.655H1161.07V206.248H1159.8ZM1182.89 206.248L1168.94 170.655H1170.78L1184.1 204.721H1183.31L1196.74 170.655H1198.53L1184.47 206.248H1182.89ZM1206.38 206.248V170.655H1208.06V206.248H1206.38ZM1207.32 206.248V204.721H1229.28V206.248H1207.32ZM1207.32 188.715V187.24H1227.7V188.715H1207.32ZM1207.32 172.182V170.655H1228.96V172.182H1207.32ZM1238.17 189.504V187.978H1249.86C1252.77 187.978 1254.99 187.258 1256.49 185.819C1258 184.345 1258.76 182.432 1258.76 180.08C1258.76 177.693 1258 175.78 1256.49 174.341C1254.99 172.902 1252.77 172.182 1249.86 172.182H1238.17V170.655H1249.6C1251.95 170.655 1253.93 171.059 1255.55 171.866C1257.16 172.638 1258.39 173.744 1259.23 175.183C1260.08 176.587 1260.5 178.219 1260.5 180.08C1260.5 181.94 1260.08 183.59 1259.23 185.029C1258.39 186.433 1257.16 187.539 1255.55 188.346C1253.93 189.118 1251.95 189.504 1249.6 189.504H1238.17ZM1237.33 206.248V170.655H1239.01V206.248H1237.33ZM1260.92 206.248L1246.65 188.767L1248.49 188.451L1263.18 206.248H1260.92ZM1278.64 206.774C1275.9 206.774 1273.52 206.248 1271.48 205.195C1269.45 204.107 1267.71 202.632 1266.27 200.772L1267.48 199.614C1268.95 201.614 1270.62 203.053 1272.48 203.931C1274.34 204.773 1276.43 205.195 1278.75 205.195C1281.34 205.195 1283.47 204.563 1285.12 203.299C1286.77 202.036 1287.59 200.28 1287.59 198.034C1287.59 196.349 1287.24 194.98 1286.54 193.927C1285.87 192.839 1284.98 191.962 1283.85 191.295C1282.73 190.628 1281.5 190.049 1280.17 189.557C1278.83 189.031 1277.5 188.522 1276.17 188.03C1274.83 187.504 1273.6 186.872 1272.48 186.135C1271.36 185.363 1270.45 184.397 1269.74 183.239C1269.08 182.045 1268.74 180.536 1268.74 178.711C1268.74 176.991 1269.15 175.499 1269.95 174.235C1270.8 172.937 1271.96 171.936 1273.43 171.234C1274.9 170.497 1276.62 170.129 1278.59 170.129C1280.87 170.129 1282.91 170.567 1284.7 171.445C1286.49 172.322 1288.01 173.586 1289.28 175.236L1288.07 176.394C1286.87 174.885 1285.5 173.727 1283.96 172.919C1282.45 172.112 1280.66 171.708 1278.59 171.708C1276.2 171.708 1274.25 172.322 1272.74 173.551C1271.24 174.78 1270.48 176.482 1270.48 178.658C1270.48 180.238 1270.81 181.537 1271.48 182.554C1272.18 183.537 1273.1 184.362 1274.22 185.029C1275.34 185.661 1276.57 186.223 1277.9 186.714C1279.24 187.17 1280.57 187.662 1281.91 188.188C1283.24 188.715 1284.47 189.364 1285.59 190.136C1286.72 190.909 1287.61 191.909 1288.28 193.137C1288.98 194.331 1289.33 195.858 1289.33 197.718C1289.33 200.702 1288.36 202.966 1286.43 204.51C1284.54 206.02 1281.94 206.774 1278.64 206.774ZM1294.03 206.248L1308.51 170.655H1310.09L1324.47 206.248H1322.62L1308.88 172.129H1309.67L1295.82 206.248H1294.03ZM1300.09 194.506V192.979H1318.46V194.506H1300.09ZM1313.15 166.127C1312.09 166.127 1311.18 165.934 1310.41 165.548C1309.67 165.162 1308.93 164.793 1308.2 164.442C1307.46 164.056 1306.62 163.863 1305.67 163.863C1304.69 163.863 1303.93 164.056 1303.41 164.442C1302.88 164.793 1302.41 165.285 1301.98 165.917L1300.98 165.074C1301.48 164.302 1302.07 163.67 1302.77 163.179C1303.51 162.687 1304.48 162.442 1305.67 162.442C1306.83 162.442 1307.79 162.635 1308.57 163.021C1309.37 163.372 1310.13 163.74 1310.83 164.126C1311.53 164.512 1312.3 164.706 1313.15 164.706C1313.95 164.706 1314.6 164.53 1315.09 164.179C1315.62 163.793 1316.1 163.284 1316.52 162.652L1317.52 163.495C1317.03 164.267 1316.43 164.899 1315.73 165.39C1315.02 165.881 1314.16 166.127 1313.15 166.127ZM1345.01 206.774C1342.52 206.774 1340.2 206.318 1338.06 205.405C1335.95 204.458 1334.11 203.141 1332.53 201.456C1330.95 199.772 1329.72 197.823 1328.84 195.612C1327.97 193.366 1327.53 190.961 1327.53 188.399C1327.53 185.801 1327.95 183.397 1328.79 181.186C1329.67 178.974 1330.9 177.044 1332.48 175.394C1334.06 173.744 1335.9 172.463 1338 171.55C1340.11 170.603 1342.41 170.129 1344.9 170.129C1347.39 170.129 1349.69 170.603 1351.8 171.55C1353.94 172.463 1355.78 173.744 1357.33 175.394C1358.91 177.044 1360.14 178.992 1361.01 181.238C1361.89 183.45 1362.33 185.854 1362.33 188.451C1362.33 191.014 1361.89 193.418 1361.01 195.665C1360.17 197.876 1358.96 199.824 1357.38 201.509C1355.8 203.159 1353.96 204.458 1351.85 205.405C1349.78 206.318 1347.5 206.774 1345.01 206.774ZM1344.9 205.142C1347.89 205.142 1350.55 204.405 1352.9 202.931C1355.26 201.456 1357.12 199.456 1358.49 196.928C1359.85 194.401 1360.54 191.558 1360.54 188.399C1360.54 186.047 1360.14 183.871 1359.33 181.87C1358.56 179.834 1357.47 178.062 1356.06 176.552C1354.66 175.043 1353.01 173.867 1351.11 173.024C1349.22 172.182 1347.15 171.761 1344.9 171.761C1341.92 171.761 1339.25 172.498 1336.9 173.972C1334.55 175.411 1332.69 177.395 1331.32 179.922C1329.98 182.414 1329.32 185.24 1329.32 188.399C1329.32 190.751 1329.7 192.944 1330.48 194.98C1331.28 197.016 1332.39 198.806 1333.79 200.351C1335.2 201.86 1336.85 203.036 1338.74 203.878C1340.64 204.721 1342.69 205.142 1344.9 205.142Z" fill="white"/>
</svg>
